{"title":"R.I.P.D. 2013 TS XviD AC3 - TODE","uid":8796483,"size":733083281,"categoryP":"video","categoryS":"movies","magnet":"?xt=urn:btih:2370f081c64082a683cbcb35f85cec0e17b6135b&amp;dn=R.I.P.D.+2013+TS+XviD+AC3+-+TODE&amp;tr=udp%3A%2F%2Ftracker.openbittorrent.com%3A80&amp;tr=udp%3A%2F%2Fopen.demonii.com%3A1337&amp;tr=udp%3A%2F%2Ftracker.coppersurfer.tk%3A6969&amp;tr=udp%3A%2F%2Fexodus.desync.com%3A6969","seeders":3,"leechers":0,"uploader":"xxxlavalxxx","files":-1,"time":1376090610,"description":"\n &lt;a href=&quot;\nhttp://www.imdb.com/title/tt0790736/&quot; rel=&quot;nofollow&quot; target=&quot;_NEW&quot;&gt;\nhttp://www.imdb.com/title/tt0790736/&lt;/a&gt;\n\n\nA recently slain cop joins a team of undead police officers working for the Rest in Peace Department and tries to find the man who murdered him. \n\n\n\nDirector:\n Robert Schwentke \n\nWriters:\n Phil Hay (screenplay), Matt Manfredi (screenplay) \n\nStars:\n Jeff Bridges, Ryan Reynolds, Kevin Bacon\n\nGenres:\n  Action |  Comedy |  Crime |  Fantasy \n\nCountry:\n USA \n\n\nThanks: MiLLENiUM\n\n\nFormat                                   : AVI\nFormat/Info                              : Audio Video Interleave\nFile size                                : 699 MiB\nDuration                                 : 1h 27mn\nOverall bit rate                         : 1 119 Kbps\nWriting application                      : Lavf55.3.100\n\nVideo\nID                                       : 0\nFormat                                   : MPEG-4 Visual\nFormat profile                           : Simple@L3\nFormat settings, BVOP                    : No\nFormat settings, QPel                    : No\nFormat settings, GMC                     : No warppoints\nFormat settings, Matrix                  : Default (H.263)\nCodec ID                                 : XVID\nCodec ID/Hint                            : XviD\nDuration                                 : 1h 27mn\nBit rate                                 : 980 Kbps\nWidth                                    : 640 pixels\nHeight                                   : 270 pixels\nDisplay aspect ratio                     : 2.35:1\nOriginal display aspect ratio            : 2.40:1\nFrame rate                               : 29.970 fps\nColor space                              : YUV\nChroma subsampling                       : 4:2:0\nBit depth                                : 8 bits\nScan type                                : Progressive\nCompression mode                         : Lossy\nBits/(Pixel*Frame)                       : 0.189\nStream size                              : 612 MiB (88%)\nWriting library                          : XviD 64\n\nAudio\nID                                       : 1\nFormat                                   : AC-3\nFormat/Info                              : Audio Coding 3\nMode extension                           : CM (complete main)\nFormat settings, Endianness              : Big\nCodec ID                                 : 2000\nDuration                                 : 1h 27mn\nBit rate mode                            : Constant\nBit rate                                 : 128 Kbps\nChannel(s)                               : 2 channels\nChannel positions                        : Front: L R\nSampling rate                            : 44.1 KHz\nBit depth                                : 16 bits\nCompression mode                         : Lossy\nStream size                              : 79.9 MiB (11%)\nAlignment                                : Aligned on interleaves\nInterleave, duration                     : 35 ms (1.04 video frame)\n\n\n\n\n    \n    \n    \n    \n    \n    \n\n &lt;a href=&quot;\nhttp://bayimg.com/NAOlmaAed&quot; rel=&quot;nofollow&quot; target=&quot;_NEW&quot;&gt;\nhttp://bayimg.com/NAOlmaAed&lt;/a&gt; &lt;a href=&quot;\nhttp://bayimg.com/NAOLNaAed&quot; rel=&quot;nofollow&quot; target=&quot;_NEW&quot;&gt;\nhttp://bayimg.com/NAOLNaAed&lt;/a&gt; &lt;a href=&quot;\nhttp://bayimg.com/nAOLOaaeD&quot; rel=&quot;nofollow&quot; target=&quot;_NEW&quot;&gt;\nhttp://bayimg.com/nAOLOaaeD&lt;/a&gt;","torrent":{"xt":"urn:btih:2370f081c64082a683cbcb35f85cec0e17b6135b","amp;dn":"R.I.P.D.+2013+TS+XviD+AC3+-+TODE","amp;tr":["udp%3A%2F%2Ftracker.openbittorrent.com%3A80","udp%3A%2F%2Fopen.demonii.com%3A1337","udp%3A%2F%2Ftracker.coppersurfer.tk%3A6969","udp%3A%2F%2Fexodus.desync.com%3A6969"],"infoHash":"2370f081c64082a683cbcb35f85cec0e17b6135b","infoHashBuffer":{"type":"Buffer","data":[35,112,240,129,198,64,130,166,131,203,203,53,248,92,236,14,23,182,19,91]},"announce":[],"urlList":[]}}